{"title":"Sonali Cable (2014) 1CD DvDScr 700MB [AC3 Studio Audio][SumoMan]","uid":11232461,"size":749966925,"categoryP":"video","categoryS":"movies","magnet":"?xt=urn:btih:30f0126ddb2ef7ee46e12a7563e065e57bf5eff3&amp;dn=Sonali+Cable+%282014%29+1CD+DvDScr+700MB+%5BAC3+Studio+Audio%5D%5BSumoMan%5D&amp;tr=udp%3A%2F%2Ftracker.openbittorrent.com%3A80&amp;tr=udp%3A%2F%2Fopen.demonii.com%3A1337&amp;tr=udp%3A%2F%2Ftracker.coppersurfer.tk%3A6969&amp;tr=udp%3A%2F%2Fexodus.desync.com%3A6969","seeders":0,"leechers":1,"uploader":"inovai","files":3,"time":1413557472,"description":"Sonali Cable (2014) 1CD DvDScr 700MB [AC3 Studio Audio][SumoMan]\n\nCover:\n &lt;a href=&quot;\nhttp://forum.primetimeshow.in/viewtopic.php?f=7&amp;t=782&quot; rel=&quot;nofollow&quot; target=&quot;_NEW&quot;&gt;\nhttp://forum.primetimeshow.in/viewtopic.php?f=7&amp;t=782&lt;/a&gt;\n\nScreenshots:\n &lt;a href=&quot;\nhttp://m.primetimeshow.in/share-A16D_5441103E.html&quot; rel=&quot;nofollow&quot; target=&quot;_NEW&quot;&gt;\nhttp://m.primetimeshow.in/share-A16D_5441103E.html&lt;/a&gt;\n &lt;a href=&quot;\nhttp://m.primetimeshow.in/share-3F31_5441103E.html&quot; rel=&quot;nofollow&quot; target=&quot;_NEW&quot;&gt;\nhttp://m.primetimeshow.in/share-3F31_5441103E.html&lt;/a&gt;\n &lt;a href=&quot;\nhttp://m.primetimeshow.in/share-BF76_5441103E.html&quot; rel=&quot;nofollow&quot; target=&quot;_NEW&quot;&gt;\nhttp://m.primetimeshow.in/share-BF76_5441103E.html&lt;/a&gt;\n &lt;a href=&quot;\nhttp://m.primetimeshow.in/share-EAF7_5441103E.html&quot; rel=&quot;nofollow&quot; target=&quot;_NEW&quot;&gt;\nhttp://m.primetimeshow.in/share-EAF7_5441103E.html&lt;/a&gt;\n &lt;a href=&quot;\nhttp://m.primetimeshow.in/share-6C68_5441103E.html&quot; rel=&quot;nofollow&quot; target=&quot;_NEW&quot;&gt;\nhttp://m.primetimeshow.in/share-6C68_5441103E.html&lt;/a&gt;\n\nGeneral Info:\n\nFormat : Matroska\nFormat version : Version 4 / Version 2\nFile size : 703 MiB\nDuration : 2h 4mn\nOverall bit rate : 793 Kbps\nMovie name : Sonali Cable (2014) 1CD DvDScr 700MB [AC3 Studio Audio][SumoMan]\n\n\nVideo\nID : 1\nFormat : MPEG-4 Visual\nFormat profile : Advanced Simple@L5\nFormat settings, BVOP : Yes\nFormat settings, QPel : No\nFormat settings, GMC : No warppoints\nFormat settings, Matrix : Default (H.263)\nCodec ID : V_MS/VFW/FOURCC / XVID\nCodec ID/Hint : XviD\nDuration : 2h 4mn\nBit rate : 681 Kbps\nWidth : 640 pixels\nHeight : 272 pixels\nDisplay aspect ratio : 2.35:1\nFrame rate mode : Constant\nFrame rate : 25.000 fps\nColor space : YUV\nChroma subsampling : 4:2:0\nBit depth : 8 bits\nScan type : Progressive\nCompression mode : Lossy\nBits/(Pixel*Frame) : 0.156\nStream size : 604 MiB (86%)\nTitle : Sonali Cable (2014) 1CD DvDScr 700MB [AC3 Studio Audio][SumoMan]\n\n\nAudio\nID : 2\nFormat : AC-3\nFormat/Info : Audio Coding 3\nMode extension : CM (complete main)\nFormat settings, Endianness : Big\nCodec ID : A_AC3\nDuration : 2h 4mn\nBit rate mode : Constant\nBit rate : 96.0 Kbps\nChannel(s) : 2 channels\nChannel positions : Front: L R\nSampling rate : 44.1 KHz\nBit depth : 16 bits\nCompression mode : Lossy\nStream size : 85.2 MiB (12%)\nDefault : Yes\nForced : No\n\n\nThanks to SumoMan!!\n\nSeed n Enjoy!!","torrent":{"xt":"urn:btih:30f0126ddb2ef7ee46e12a7563e065e57bf5eff3","amp;dn":"Sonali+Cable+%282014%29+1CD+DvDScr+700MB+%5BAC3+Studio+Audio%5D%5BSumoMan%5D","amp;tr":["udp%3A%2F%2Ftracker.openbittorrent.com%3A80","udp%3A%2F%2Fopen.demonii.com%3A1337","udp%3A%2F%2Ftracker.coppersurfer.tk%3A6969","udp%3A%2F%2Fexodus.desync.com%3A6969"],"infoHash":"30f0126ddb2ef7ee46e12a7563e065e57bf5eff3","infoHashBuffer":{"type":"Buffer","data":[48,240,18,109,219,46,247,238,70,225,42,117,99,224,101,229,123,245,239,243]},"announce":[],"urlList":[]}}